<svg
    xmlns="http://www.w3.org/2000/svg"
    viewBox="0 0 24 24"
    id="vector">
    <path
        id="path"
        d="M 12.013 5.82 C 13.731 5.82 15.364 6.371 16.708 7.384 L 19.571 6.616 L 18.755 9.67 C 20.522 12.67 20.12 16.603 17.546 19.174 C 16.069 20.652 14.104 21.468 12.013 21.468 C 9.923 21.468 7.958 20.652 6.481 19.174 C 5.003 17.697 4.19 15.734 4.19 13.642 C 4.19 11.554 5.003 9.588 6.481 8.109 C 7.96 6.635 9.923 5.82 12.013 5.82"
        fill="#ffffff"/>
    <path
        id="path_1"
        d="M 12.013 5.82 C 13.731 5.82 15.364 6.371 16.708 7.384 L 19.571 6.616 L 18.755 9.67 C 20.522 12.67 20.12 16.603 17.546 19.174 C 16.069 20.652 14.104 21.468 12.013 21.468 C 9.923 21.468 7.958 20.652 6.481 19.174 C 5.003 17.697 4.19 15.734 4.19 13.642 C 4.19 11.554 5.003 9.588 6.481 8.109 C 7.96 6.635 9.923 5.82 12.013 5.82 M 23.152 3.04 L 18.919 4.176 L 17.148 4.65 C 15.592 3.757 13.84 3.292 12.012 3.292 C 9.246 3.292 6.648 4.369 4.693 6.324 C 2.737 8.281 1.66 10.88 1.66 13.646 C 1.66 16.412 2.737 19.013 4.692 20.97 C 6.648 22.922 9.249 23.999 12.012 23.999 C 14.778 23.999 17.379 22.922 19.334 20.968 C 22.404 17.896 23.209 13.271 21.449 9.384 L 22.015 7.273 L 23.152 3.04 L 23.152 3.04 Z"
        fill="#f5bd5b"/>
    <path
        id="path_2"
        d="M 8.742 11.436 C 7.853 11.436 7.136 12.428 7.136 13.653 C 7.136 14.878 7.855 15.869 8.742 15.869 C 9.629 15.869 10.349 14.878 10.349 13.653 C 10.349 12.428 9.632 11.436 8.742 11.436 Z M 8.767 13.427 C 8.346 13.427 8.004 13.085 8.004 12.666 C 8.004 12.243 8.344 11.902 8.767 11.902 C 9.187 11.902 9.529 12.243 9.529 12.666 C 9.529 13.085 9.187 13.427 8.767 13.427 Z"
        fill="#f5bd5b"/>
    <path
        id="path_3"
        d="M 15.103 11.436 C 14.215 11.436 13.499 12.428 13.499 13.653 C 13.499 14.878 14.218 15.869 15.103 15.869 C 15.992 15.869 16.709 14.878 16.709 13.653 C 16.712 12.428 15.992 11.436 15.103 11.436 Z M 15.132 13.427 C 14.71 13.427 14.369 13.085 14.369 12.666 C 14.369 12.243 14.71 11.902 15.132 11.902 C 15.552 11.902 15.892 12.243 15.892 12.666 C 15.889 13.085 15.55 13.427 15.132 13.427 Z"
        fill="#f5bd5b"/>
    <path
        id="path_4"
        d="M 12.011 18.921 C 9.632 18.921 7.501 17.874 6.048 16.218 C 6.985 18.6 9.298 20.286 12.011 20.286 C 14.725 20.286 17.038 18.599 17.977 16.218 C 16.521 17.874 14.388 18.921 12.011 18.921 Z"
        fill="#f5bd5b"/>
</svg>
