<svg
    xmlns="http://www.w3.org/2000/svg"
    viewBox="0 0 24 24"
    id="vector">
    <path
        id="path"
        d="M 12.004 5.82 C 13.722 5.82 15.354 6.371 16.698 7.385 L 19.562 6.617 L 18.746 9.67 C 20.513 12.67 20.109 16.605 17.537 19.175 C 16.058 20.654 14.096 21.468 12.004 21.468 C 9.914 21.468 7.949 20.654 6.472 19.175 C 4.994 17.697 4.181 15.734 4.181 13.642 C 4.181 11.554 4.994 9.588 6.472 8.111 C 7.951 6.634 9.916 5.82 12.004 5.82"
        fill="#ffffff"/>
    <path
        id="path_8"
        d="M 12.004 5.82 C 13.722 5.82 15.354 6.371 16.698 7.385 L 19.562 6.617 L 18.746 9.67 C 20.513 12.67 20.109 16.605 17.537 19.175 C 16.058 20.654 14.096 21.468 12.004 21.468 C 9.914 21.468 7.949 20.654 6.472 19.175 C 4.994 17.697 4.181 15.734 4.181 13.642 C 4.181 11.554 4.994 9.588 6.472 8.111 C 7.951 6.634 9.916 5.82 12.004 5.82 M 23.142 3.04 L 18.908 4.175 L 17.138 4.649 C 15.581 3.757 13.831 3.291 12.003 3.291 C 9.239 3.291 6.639 4.368 4.682 6.324 C 2.727 8.279 1.65 10.879 1.65 13.644 C 1.65 16.411 2.727 19.011 4.682 20.966 C 6.638 22.922 9.239 23.999 12.003 23.999 C 14.769 23.999 17.37 22.922 19.325 20.966 C 22.395 17.894 23.197 13.271 21.44 9.382 L 22.004 7.271 L 23.142 3.04 L 23.142 3.04 Z"
        fill="#f5bd5b"/>
    <path
        id="path_9"
        d="M 8.732 11.436 C 7.845 11.436 7.127 12.428 7.127 13.651 C 7.127 14.875 7.847 15.869 8.732 15.869 C 9.621 15.869 10.337 14.876 10.337 13.651 C 10.338 12.427 9.621 11.436 8.732 11.436 Z M 8.757 13.427 C 8.335 13.427 7.995 13.085 7.995 12.665 C 7.995 12.245 8.335 11.904 8.757 11.904 C 9.177 11.904 9.519 12.245 9.519 12.665 C 9.519 13.085 9.177 13.427 8.757 13.427 Z"
        fill="#f5bd5b"/>
    <path
        id="path_10"
        d="M 15.094 11.436 C 14.206 11.436 13.487 12.428 13.487 13.651 C 13.487 14.875 14.209 15.869 15.094 15.869 C 15.983 15.869 16.7 14.876 16.7 13.651 C 16.701 12.427 15.983 11.436 15.094 11.436 Z M 15.121 13.427 C 14.699 13.427 14.358 13.085 14.358 12.665 C 14.358 12.245 14.699 11.904 15.121 11.904 C 15.541 11.904 15.883 12.245 15.883 12.665 C 15.883 13.085 15.541 13.427 15.121 13.427 Z"
        fill="#f5bd5b"/>
    <path
        id="path_11"
        d="M 12.002 18.923 C 9.625 18.923 7.492 17.875 6.039 16.217 C 6.975 18.6 9.289 20.286 12.002 20.286 C 14.715 20.286 17.029 18.598 17.965 16.217 C 16.511 17.875 14.379 18.923 12.002 18.923 Z"
        fill="#f5bd5b"/>
    <path
        id="path_12"
        d="M 13.394 13.65 L 20.007 7.038 C 19.528 6.435 19.052 5.969 18.624 5.616 L 11.991 12.249 L 5.406 5.663 C 5.157 5.87 4.916 6.089 4.681 6.322 C 4.444 6.561 4.218 6.809 4.007 7.066 L 10.591 13.65 L 4.013 20.23 C 4.222 20.482 4.445 20.73 4.681 20.965 C 4.915 21.2 5.16 21.421 5.413 21.63 L 11.991 15.049 L 18.581 21.64 C 18.837 21.429 19.085 21.202 19.323 20.965 C 19.555 20.732 19.771 20.486 19.979 20.236 L 13.394 13.65 Z"
        fill="#d05a52"/>
</svg>
