<svg
    xmlns="http://www.w3.org/2000/svg"
    viewBox="0 0 24 24"
    id="vector">
    <path
        id="path"
        d="M 21.812 8.98 C 20.157 10.634 17.474 10.634 15.82 8.98 C 14.165 7.325 14.165 4.642 15.82 2.986 C 18.217 0.589 23.996 0.804 23.996 0.804 C 23.996 0.804 24.209 6.582 21.812 8.98 Z"
        fill="#7dbd5b"/>
    <path
        id="path_1"
        d="M 10.277 5.954 C 11.982 5.954 13.601 6.5 14.939 7.508 L 17.783 6.746 L 16.97 9.776 C 18.724 12.754 18.324 16.659 15.769 19.213 C 14.302 20.681 12.353 21.488 10.277 21.488 C 8.204 21.488 6.253 20.678 4.786 19.213 C 3.318 17.745 2.511 15.796 2.511 13.72 C 2.511 11.648 3.319 9.697 4.786 8.228 C 6.253 6.763 8.204 5.954 10.277 5.954"
        fill="#ffffff"/>
    <path
        id="path_2"
        d="M 10.277 5.954 C 11.982 5.954 13.601 6.5 14.939 7.508 L 17.783 6.746 L 16.97 9.776 C 18.724 12.754 18.324 16.659 15.769 19.213 C 14.302 20.681 12.353 21.488 10.277 21.488 C 8.204 21.488 6.253 20.678 4.786 19.213 C 3.318 17.745 2.511 15.796 2.511 13.72 C 2.511 11.648 3.319 9.697 4.786 8.228 C 6.253 6.763 8.204 5.954 10.277 5.954 M 21.334 3.193 L 17.132 4.32 L 15.374 4.791 C 13.831 3.906 12.091 3.441 10.279 3.441 C 7.534 3.441 4.953 4.51 3.01 6.452 C 1.07 8.394 0 10.976 0 13.72 C 0 16.466 1.07 19.047 3.01 20.991 C 4.951 22.931 7.533 24.001 10.28 24.001 C 13.026 24.001 15.606 22.932 17.546 20.991 C 20.596 17.941 21.393 13.351 19.647 9.492 L 20.21 7.396 L 21.334 3.193 L 21.334 3.193 Z"
        fill="#7dbd5b"/>
    <path
        id="path_4"
        d="M 7.031 11.527 C 6.15 11.527 5.435 12.513 5.435 13.728 C 5.435 14.943 6.15 15.926 7.031 15.926 C 7.912 15.926 8.626 14.943 8.626 13.728 C 8.626 12.513 7.913 11.527 7.031 11.527 Z M 7.057 13.504 C 6.639 13.504 6.3 13.165 6.3 12.748 C 6.3 12.331 6.639 11.992 7.057 11.992 C 7.473 11.992 7.813 12.331 7.813 12.748 C 7.813 13.165 7.473 13.504 7.057 13.504 Z"
        fill="#7dbd5b"/>
    <path
        id="path_5"
        d="M 13.347 11.527 C 12.466 11.527 11.752 12.513 11.752 13.728 C 11.752 14.943 12.466 15.926 13.347 15.926 C 14.228 15.926 14.943 14.943 14.943 13.728 C 14.943 12.513 14.228 11.527 13.347 11.527 Z M 13.371 13.504 C 12.954 13.504 12.615 13.165 12.615 12.748 C 12.615 12.331 12.954 11.992 13.371 11.992 C 13.789 11.992 14.128 12.331 14.128 12.748 C 14.128 13.165 13.789 13.504 13.371 13.504 Z"
        fill="#7dbd5b"/>
    <path
        id="path_6"
        d="M 10.275 18.96 C 7.916 18.96 5.798 17.92 4.357 16.274 C 5.286 18.637 7.583 20.313 10.275 20.313 C 12.968 20.313 15.267 18.637 16.194 16.274 C 14.753 17.92 12.638 18.96 10.275 18.96 Z"
        fill="#7dbd5b"/>
</svg>
