<svg
    xmlns="http://www.w3.org/2000/svg"
    viewBox="0 0 24 24"
    id="vector">
    <path
        id="path_1"
        d="M 21.812 8.98 C 20.157 10.635 17.474 10.635 15.82 8.98 C 14.165 7.326 14.165 4.642 15.82 2.989 C 18.217 0.591 23.996 0.804 23.996 0.804 C 23.996 0.804 24.209 6.582 21.812 8.98 Z"
        fill="#7dbd5b"/>
    <path
        id="path_2"
        d="M 10.279 5.955 C 11.982 5.955 13.603 6.501 14.941 7.509 L 17.784 6.747 L 16.97 9.778 C 18.726 12.755 18.324 16.66 15.771 19.214 C 14.304 20.681 12.354 21.489 10.279 21.489 C 8.204 21.489 6.253 20.68 4.786 19.214 C 3.318 17.746 2.511 15.797 2.511 13.722 C 2.511 11.647 3.319 9.697 4.786 8.229 C 6.252 6.763 8.203 5.955 10.279 5.955"
        fill="#ffffff"/>
    <path
        id="path_3"
        d="M 10.279 5.955 C 11.982 5.955 13.603 6.501 14.941 7.509 L 17.784 6.747 L 16.97 9.778 C 18.726 12.755 18.324 16.66 15.771 19.214 C 14.304 20.681 12.354 21.489 10.279 21.489 C 8.204 21.489 6.253 20.68 4.786 19.214 C 3.318 17.746 2.511 15.797 2.511 13.722 C 2.511 11.647 3.319 9.697 4.786 8.229 C 6.252 6.763 8.203 5.955 10.279 5.955 M 21.333 3.195 L 17.132 4.32 L 15.374 4.792 C 13.831 3.907 12.091 3.443 10.279 3.443 C 7.534 3.443 4.952 4.511 3.009 6.453 C 1.068 8.396 0 10.976 0 13.722 C 0 16.467 1.068 19.048 3.01 20.992 C 4.951 22.931 7.533 24 10.28 24 C 13.026 24 15.606 22.932 17.546 20.991 C 20.596 17.941 21.393 13.351 19.647 9.491 L 20.21 7.395 L 21.333 3.195 L 21.333 3.195 Z"
        fill="#7dbd5b"/>
    <path
        id="path_4"
        d="M 7.029 11.528 C 6.15 11.528 5.435 12.513 5.435 13.728 C 5.435 14.943 6.148 15.927 7.029 15.927 C 7.911 15.927 8.626 14.943 8.626 13.728 C 8.626 12.513 7.912 11.528 7.029 11.528 Z M 7.055 13.506 C 6.639 13.506 6.3 13.167 6.3 12.75 C 6.3 12.333 6.639 11.994 7.055 11.994 C 7.473 11.994 7.813 12.333 7.813 12.75 C 7.813 13.167 7.473 13.506 7.055 13.506 Z"
        fill="#7dbd5b"/>
    <path
        id="path_5"
        d="M 13.345 11.528 C 12.466 11.528 11.752 12.513 11.752 13.728 C 11.752 14.943 12.466 15.927 13.345 15.927 C 14.228 15.927 14.941 14.943 14.941 13.728 C 14.941 12.513 14.228 11.528 13.345 11.528 Z M 13.371 13.506 C 12.954 13.506 12.615 13.167 12.615 12.75 C 12.615 12.333 12.954 11.994 13.371 11.994 C 13.789 11.994 14.128 12.333 14.128 12.75 C 14.127 13.167 13.789 13.506 13.371 13.506 Z"
        fill="#7dbd5b"/>
    <path
        id="path_6"
        d="M 10.275 18.961 C 7.915 18.961 5.798 17.922 4.355 16.275 C 5.285 18.638 7.582 20.314 10.275 20.314 C 12.968 20.314 15.267 18.638 16.194 16.275 C 14.753 17.922 12.638 18.961 10.275 18.961 Z"
        fill="#7dbd5b"/>
    <path
        id="path_7"
        d="M 11.654 13.728 L 18.217 7.165 C 17.742 6.567 17.269 6.104 16.847 5.753 L 10.262 12.338 L 3.725 5.799 C 3.477 6.005 3.237 6.222 3.005 6.453 C 2.77 6.689 2.546 6.937 2.335 7.191 L 8.871 13.729 L 2.34 20.259 C 2.549 20.511 2.77 20.755 3.005 20.99 C 3.238 21.221 3.481 21.442 3.733 21.649 L 10.264 15.118 L 16.805 21.659 C 17.059 21.449 17.305 21.225 17.542 20.989 C 17.773 20.758 17.986 20.514 18.193 20.264 L 11.654 13.728 Z"
        fill="#d05a52"/>
</svg>
